<?xml version="1.0" encoding="UTF-8"?> <svg xmlns="http://www.w3.org/2000/svg" viewBox="0 0 83 83"><defs><style>.cls-1{fill:#fff;}.cls-2,.cls-3{fill:#6fccdd;stroke:#6fccdd;}.cls-2{stroke-linecap:round;stroke-miterlimit:10;}</style></defs><g id="Layer_2" data-name="Layer 2"><g id="Layer_1-2" data-name="Layer 1"><path class="cls-1" d="M74.5,60.68H8.5v5h66Z"></path><path class="cls-1" d="M80.46,41.68H2.24v5H80.46Z"></path><path class="cls-1" d="M77.5,22.68H5.5v5h72Z"></path><path class="cls-2" d="M41.5,3.24a38.31,38.31,0,1,0,27,11.22,38.32,38.32,0,0,0-27-11.22Zm0,79.26a41,41,0,1,1,29-12,41,41,0,0,1-29,12"></path><path class="cls-2" d="M41.5,82.5V79.76c5.4,0,10.55-3.87,14.48-10.91,4.08-7.28,6.32-17,6.32-27.35S60.06,21.43,56,14.15C52.05,7.12,46.9,3.24,41.5,3.24V.5c6.44,0,12.43,4.37,16.88,12.31,4.3,7.68,6.67,17.87,6.67,28.69s-2.37,21-6.67,28.69C53.93,78.13,47.94,82.5,41.5,82.5"></path><path class="cls-3" d="M40.13,1.37h-.5V81.63h3.74V1.37H40.13Z"></path><path class="cls-2" d="M40.79.5V3.24c-5.4,0-10.55,3.87-14.48,10.91C22.23,21.43,20,31.15,20,41.5s2.24,20.07,6.32,27.35c3.93,7,9.08,10.91,14.48,10.91V82.5c-6.44,0-12.43-4.37-16.87-12.31-4.31-7.68-6.67-17.87-6.67-28.69s2.36-21,6.67-28.69C28.36,4.87,34.35.5,40.79.5"></path></g></g></svg> 