<?xml version="1.0" encoding="UTF-8"?> <svg xmlns="http://www.w3.org/2000/svg" width="919" height="211" viewBox="0 0 919 211" fill="none"><path d="M272.52 192.636V176.739H257.175V192.636H248.859V153.046H257.175V168.722H272.52V153.046H280.835V192.636H272.52Z" fill="#474A50"></path><path d="M329.961 193.318C318.297 193.318 309.926 184.222 309.926 172.956V172.838C309.926 161.586 318.408 152.366 330.072 152.366C341.736 152.366 350.106 161.476 350.106 172.728V172.845C350.106 184.097 341.625 193.318 329.961 193.318ZM341.417 172.845C341.417 166.057 336.658 160.404 329.961 160.404C323.264 160.404 318.615 165.947 318.615 172.734V172.852C318.615 179.639 323.375 185.293 330.072 185.293C336.768 185.293 341.417 179.749 341.417 172.962V172.845Z" fill="#474A50"></path><path d="M394.7 161.083V192.642H386.384V161.083H374.872V153.052H406.197V161.083H394.7Z" fill="#474A50"></path><path d="M437.347 192.635V153.045H465.864V160.8H445.607V168.832H463.429V176.573H445.607V184.894H466.14V192.635H437.347Z" fill="#474A50"></path><path d="M498.306 192.635V153.045H506.621V184.715H525.466V192.635H498.306Z" fill="#474A50"></path><path d="M609.518 193.318C597.743 193.318 589.649 184.664 589.649 172.956V172.838C589.649 161.586 598.02 152.366 609.462 152.366C616.27 152.366 620.379 154.286 624.322 157.799L619.079 164.42C616.161 161.877 613.571 160.398 609.199 160.398C603.139 160.398 598.338 165.996 598.338 172.728V172.845C598.338 180.088 603.084 185.397 609.795 185.397C612.811 185.397 615.509 184.609 617.626 183.018V177.364H609.255V169.845H625.664V187.041C621.778 190.481 616.436 193.318 609.518 193.318Z" fill="#474A50"></path><path d="M682.925 192.635L674.817 179.973H668.286V192.635H659.97V153.045H677.252C686.162 153.045 691.517 157.966 691.517 166.108V166.226C691.517 172.612 688.222 176.621 683.409 178.501L692.652 192.629L682.925 192.635ZM683.082 166.564C683.082 162.846 680.591 160.911 676.551 160.911H668.277V172.274H676.703C680.758 172.274 683.082 170.02 683.082 166.675V166.564Z" fill="#474A50"></path><path d="M740.622 193.318C728.944 193.318 720.573 184.222 720.573 172.956V172.838C720.573 161.586 729.055 152.366 740.719 152.366C752.397 152.366 760.768 161.476 760.768 172.728V172.845C760.768 184.097 752.286 193.318 740.622 193.318ZM752.065 172.845C752.065 166.057 747.319 160.404 740.622 160.404C733.925 160.404 729.276 165.947 729.276 172.734V172.852C729.276 179.639 734.022 185.293 740.719 185.293C747.416 185.293 752.065 179.749 752.065 172.962V172.845Z" fill="#474A50"></path><path d="M807.165 193.261C797.009 193.261 790.797 187.317 790.797 175.678V153.049H799.113V175.456C799.113 181.898 802.199 185.23 807.276 185.23C812.354 185.23 815.426 182.008 815.426 175.733V153.049H823.741V175.387C823.741 187.372 817.321 193.261 807.165 193.261Z" fill="#474A50"></path><path d="M870.089 180.765H863.78V192.64H855.451V153.05H870.905C879.913 153.05 885.378 158.648 885.378 166.734V166.852C885.378 176.003 878.571 180.765 870.089 180.765ZM876.952 166.907C876.952 163.008 874.363 160.908 870.2 160.908H863.78V173.016H870.366C874.517 173.016 876.952 170.403 876.952 167.018V166.907Z" fill="#474A50"></path><path d="M248.864 130.762H883.591V133.207H248.864V130.762Z" fill="#474A50"></path><path d="M385.791 73.3049H359.17L372.425 40.9167L385.791 73.3049ZM365.036 18.5511L326.516 110.876H344.046L352.86 89.2156H392.086L400.789 110.876H418.817L380.284 18.5511H365.036Z" fill="#474A50"></path><path d="M489.752 65.1682C489.752 82.7653 478.185 94.5842 460.959 94.5842H445.033V35.4902H460.959C477.908 35.4902 489.752 47.6957 489.752 65.1682ZM460.959 19.1921H428.028V110.882H460.959C487.912 110.882 507.49 91.5429 507.49 64.9194C507.49 38.4205 487.912 19.1921 460.959 19.1921Z" fill="#474A50"></path><path d="M775.955 65.1679C775.955 82.7509 763.946 95.9937 748.02 95.9937C731.956 95.9937 719.849 82.6405 719.849 64.9191C719.849 47.3362 731.859 34.0795 747.771 34.0795C763.835 34.0795 775.955 47.4466 775.955 65.1679ZM748.02 17.6576C721.842 17.6576 702.111 38.0883 702.111 65.1679C702.111 92.1092 721.745 112.429 747.771 112.429C773.949 112.429 793.694 91.9988 793.694 64.9191C793.694 37.9779 774.046 17.6576 748.02 17.6576Z" fill="#474A50"></path><path d="M303.6 49.5257C303.6 58.2621 297.222 63.6804 286.941 63.6804H265.869V35.4954H286.817C297.637 35.4954 303.6 40.4715 303.6 49.5257ZM320.84 48.6283C320.84 30.4783 308.277 19.1991 288.034 19.1991H248.864V110.888H265.869V79.5922H283.233L304.306 110.888H324.396L300.971 76.4826C313.798 72.2938 320.84 62.4516 320.84 48.6283Z" fill="#474A50"></path><path d="M521.591 110.884H538.582V19.1946H521.591V110.884Z" fill="#474A50"></path><path d="M590.764 56.9213C574.133 52.7604 571.172 49.8302 571.172 43.6234C571.172 37.7623 576.388 33.8227 584.164 33.8227C591.636 33.8227 599.052 36.7811 606.828 42.8491L607.644 43.4841L616.803 29.9788L616.14 29.4263C606.912 21.6851 596.548 17.9114 584.4 17.9114C566.607 17.9114 554.168 29.0668 554.168 45.0327C554.168 62.1459 564.905 68.2141 583.445 72.9001C599.371 76.7558 602.055 79.9916 602.055 85.8112C602.055 92.2526 596.604 96.2613 587.831 96.2613C578.146 96.2613 570.246 92.8484 561.432 84.8432L560.655 84.1377L550.388 96.9243L551.051 97.5473C561.276 107.113 573.867 112.159 587.468 112.159C606.645 112.159 619.043 101.225 619.043 84.2776C619.043 69.9566 610.854 62.036 590.764 56.9213Z" fill="#474A50"></path><path d="M664.856 56.9213C648.225 52.7604 645.264 49.8302 645.264 43.6234C645.264 37.7623 650.48 33.8227 658.256 33.8227C665.727 33.8227 673.144 36.7811 680.92 42.8491L681.736 43.4841L690.895 29.9788L690.232 29.4263C681.017 21.6851 670.64 17.9114 658.506 17.9114C640.699 17.9114 628.259 29.0668 628.259 45.0327C628.259 62.1459 638.997 68.2141 657.537 72.9001C673.463 76.7558 676.147 79.9916 676.147 85.8112C676.147 92.2526 670.696 96.2613 661.937 96.2613C652.252 96.2613 644.351 92.8484 635.524 84.8432L634.763 84.1538L624.482 96.9261L625.145 97.5491C635.37 107.115 647.961 112.161 661.562 112.161C680.753 112.161 693.15 101.226 693.15 84.2794C693.15 69.9584 684.946 62.036 664.856 56.9213Z" fill="#474A50"></path><path d="M866.829 19.1975V79.2863L822.65 19.5843L822.375 19.1927H806.961V110.882H823.717V48.9956L869.239 110.481L869.513 110.88H883.584V19.1915L866.829 19.1975Z" fill="#474A50"></path><path d="M131.085 140.515H111.659V113.891H86.698V140.515H67.2719V70.4581H86.698V96.6807H111.659V70.4581H131.085V140.515ZM176.357 141.925C154.51 141.925 138.294 126.913 138.294 105.694V105.499C138.294 85.0681 154.316 69.074 175.956 69.074H192.642C178.059 31.696 141.753 5.18307 99.1784 5.18307C56.0784 5.18307 19.4261 32.3735 5.1886 70.4701H31.007C41.7301 70.4701 49.1325 73.2762 53.8507 77.9767C57.9463 82.0683 60.0493 87.3763 60.0493 94.288V94.4841C60.0493 105.307 54.3488 112.412 45.632 116.103L62.36 140.529H40.0282L25.8877 119.311H17.2674V140.529H5.1886C19.4261 178.626 56.0784 205.816 99.1784 205.816C142.956 205.816 180.093 177.768 193.833 138.718C188.699 140.708 182.874 141.925 176.357 141.925Z" fill="#474A50"></path><path d="M40.6259 95.7777V95.5816C40.6259 89.983 36.5168 87.177 30.1106 87.177H17.2705V104.097H30.2072C36.7242 104.097 40.6259 100.876 40.6259 95.7777Z" fill="#474A50"></path><path d="M188.392 113.789V122.303C185.597 124.212 181.986 125.219 177.171 125.219C166.046 125.219 158.118 117.091 158.118 105.687V105.491C158.118 94.7914 165.95 86.3734 176.064 86.3734H197.704C198.548 90.6722 199.032 95.109 199.281 99.6019H174.666V113.798L188.392 113.789Z" fill="#474A50"></path><path d="M248.906 133.126H883.535V130.692H248.906V133.126Z" fill="#474A50"></path><path d="M911.65 153.052L909.23 156.935L906.795 153.052H904.594V162.258H906.559V156.037L909.105 160.074H909.301L911.846 156.037V162.258H913.811V153.052H911.65ZM895.033 153.052V154.905H897.786V162.259H899.876V154.905H902.63V153.052H895.033Z" fill="#474A50"></path></svg> 