<?xml version="1.0" encoding="UTF-8"?> <svg xmlns="http://www.w3.org/2000/svg" xmlns:xlink="http://www.w3.org/1999/xlink" viewBox="0 0 86.18 86"><defs><style>.cls-1{fill:none;}.cls-2{clip-path:url(#clip-path);}.cls-3{fill:#ffcd05;}.cls-4{fill:#6fccdd;}.cls-5{fill:#4464af;}</style><clipPath id="clip-path" transform="translate(-0.91 -1)"><rect class="cls-1" width="88" height="88"></rect></clipPath></defs><g id="Layer_2" data-name="Layer 2"><g id="Layer_1-2" data-name="Layer 1"><g class="cls-2"><path class="cls-3" d="M20,56a3,3,0,0,0,6,0ZM25.12,1.88a3,3,0,0,0-4.24,0L1.79,21A3,3,0,0,0,6,25.21l17-17,17,17A3,3,0,1,0,44.21,21ZM26,56V4H20V56Z" transform="translate(-0.91 -1)"></path><path class="cls-3" d="M62,84a3,3,0,0,0,6,0Zm5.12-54.12a3,3,0,0,0-4.24,0L43.79,49A3,3,0,1,0,48,53.21l17-17,17,17A3,3,0,1,0,86.21,49ZM68,84V32H62V84Z" transform="translate(-0.91 -1)"></path><circle class="cls-4" cx="22.09" cy="76" r="8"></circle><circle class="cls-5" cx="64.09" cy="8" r="8"></circle></g></g></g></svg> 