<?xml version="1.0" encoding="UTF-8"?> <svg xmlns="http://www.w3.org/2000/svg" xmlns:xlink="http://www.w3.org/1999/xlink" viewBox="0 0 86 87"><defs><style>.cls-1,.cls-6,.cls-7{fill:none;}.cls-2{clip-path:url(#clip-path);}.cls-3{fill:#ffcd05;}.cls-4{fill:#4464af;}.cls-5{fill:#fff;}.cls-6,.cls-7{stroke:#fff;}.cls-6{stroke-width:6px;}.cls-7{stroke-width:4px;}.cls-8,.cls-9{fill:#6fccdd;}.cls-9{fill-rule:evenodd;}</style><clipPath id="clip-path" transform="translate(-1 -1)"><rect class="cls-1" width="88" height="88"></rect></clipPath></defs><g id="Layer_2" data-name="Layer 2"><g id="Layer_1-2" data-name="Layer 1"><g class="cls-2"><circle class="cls-3" cx="8" cy="78" r="8"></circle><circle class="cls-4" cx="34" cy="78" r="8"></circle><circle class="cls-3" cx="78" cy="8" r="8"></circle><circle class="cls-5" cx="78" cy="34" r="8"></circle><circle class="cls-6" cx="31.5" cy="30.5" r="27.5"></circle><circle class="cls-7" cx="69" cy="70" r="15"></circle><path class="cls-8" d="M39.39,19.78a6.88,6.88,0,0,1-8.23,6.76,6.84,6.84,0,0,1-3.53-1.88,7,7,0,0,1-1.89-3.53,6.89,6.89,0,1,1,13.65-1.35" transform="translate(-1 -1)"></path><path class="cls-9" d="M48,47H17V40.36A10.35,10.35,0,0,1,27.33,30H37.67a10.4,10.4,0,0,1,2.77.38h0a10.33,10.33,0,0,1,7.56,10Z" transform="translate(-1 -1)"></path><path class="cls-8" d="M73.78,64.62a3.63,3.63,0,0,1-.61,2,3.65,3.65,0,0,1-3.72,1.54,3.61,3.61,0,0,1-2.85-2.85,3.57,3.57,0,0,1,.21-2.09A3.6,3.6,0,0,1,70.16,61a3.62,3.62,0,0,1,3.62,3.62" transform="translate(-1 -1)"></path><path class="cls-9" d="M78.31,78.93H62V75.45A5.45,5.45,0,0,1,67.44,70h5.44a5.46,5.46,0,0,1,1.45.2h0a5.42,5.42,0,0,1,4,5.24Z" transform="translate(-1 -1)"></path></g></g></g></svg> 