<?xml version="1.0" encoding="UTF-8"?> <svg xmlns="http://www.w3.org/2000/svg" width="120" height="48" viewBox="0 0 120 48"><path d="M1.506,3A1.489,1.489,0,0,1,0,1.495,1.484,1.484,0,0,1,1.506,0,1.479,1.479,0,0,1,3,1.495,1.483,1.483,0,0,1,1.506,3Zm0-2.75A1.2,1.2,0,0,0,.3,1.495a1.2,1.2,0,1,0,2.406,0A1.21,1.21,0,0,0,1.506.249ZM1.193,2.364H.935V.635h.649c.411,0,.6.157.6.5a.444.444,0,0,1-.442.47l.487.762-.292,0L1.49,1.615h-.3v.749Zm0-1.507v.537H1.5c.229,0,.419-.021.419-.283,0-.171-.123-.255-.377-.255Z" transform="translate(54 26)" fill="#2574bb"></path><path d="M1.5,3A1.489,1.489,0,0,1,0,1.495,1.484,1.484,0,0,1,1.5,0,1.479,1.479,0,0,1,3,1.495,1.484,1.484,0,0,1,1.5,3Zm0-2.75A1.2,1.2,0,0,0,.3,1.495a1.2,1.2,0,1,0,2.4,0A1.209,1.209,0,0,0,1.5.249ZM1.192,2.364H.934V.635h.651c.41,0,.6.157.6.5a.443.443,0,0,1-.44.47l.484.762-.288,0L1.49,1.615h-.3v.749Zm0-1.507v.537H1.5c.226,0,.412-.021.412-.283,0-.228-.214-.255-.375-.255Z" transform="translate(81 26)" fill="#2574bb"></path><path d="M20.929,8.058V0H8.072V8.058H0V20.94H8.072V29H20.929V20.94H29V8.058Z" transform="translate(32)" fill="#2574bb"></path><path d="M11.5,29A22.307,22.307,0,0,0,21.851,15.933C23.6,10.477,23.307,4.021,21.282,0A20.952,20.952,0,0,1,11.5,2.363,20.705,20.705,0,0,1,1.719,0C-.311,4.021-.6,10.477,1.15,15.933A22.325,22.325,0,0,0,11.5,29" transform="translate(65)" fill="#2574bb"></path><path d="M8.486,0A.462.462,0,0,1,9,.514V8.486A.462.462,0,0,1,8.486,9H8.074a.462.462,0,0,1-.515-.514V5.117c0-.514-.4-.592-.591-.116L5.451,8.6A.594.594,0,0,1,4.86,9H4.14a.594.594,0,0,1-.591-.4L2.031,5c-.193-.476-.591-.4-.591.116V8.486A.462.462,0,0,1,.926,9H.514A.462.462,0,0,1,0,8.486V.514A.462.462,0,0,1,.514,0H1.08a.593.593,0,0,1,.591.4L4.153,6.312c.18.425.514.425.695,0L7.329.4A.593.593,0,0,1,7.92,0Z" transform="translate(0 39)"></path><path d="M7.568,9H7.057A.547.547,0,0,1,6.5,8.6l-.414-1.08a.546.546,0,0,0-.56-.4H2.478a.546.546,0,0,0-.56.4L1.5,8.6a.545.545,0,0,1-.56.4H.432a.43.43,0,0,1-.378-.157.459.459,0,0,1,0-.434L3.087.4a.545.545,0,0,1,.56-.4h.706a.545.545,0,0,1,.56.4l3.033,8.01a.458.458,0,0,1,0,.434A.431.431,0,0,1,7.568,9ZM4,2.549c-.128,0-.248.116-.329.319l-.815,2.16a.466.466,0,0,0,.011.435.436.436,0,0,0,.379.156h1.51a.436.436,0,0,0,.378-.156.467.467,0,0,0,.012-.436l-.816-2.16C4.248,2.665,4.128,2.549,4,2.549Z" transform="translate(11 39)"></path><path d="M6.563,2c.08.325-.133.525-.49.525H5.556c-.318,0-.424-.15-.583-.413a1.807,1.807,0,0,0-1.5-.675c-.875,0-1.617.5-1.617,1.088,0,.562.636.8,2.014,1.175C5.185,4.063,7,4.563,7,6.3,7,7.788,5.423,9,3.475,9A3.424,3.424,0,0,1,.017,6.825c-.08-.337.133-.525.49-.525h.5c.318,0,.437.15.584.412a2.178,2.178,0,0,0,1.882.85c1.087,0,2-.575,2-1.263,0-.562-.53-.8-2.041-1.212-1.312-.363-3.1-.85-3.1-2.562C.335,1.125,1.739,0,3.475,0A3.073,3.073,0,0,1,6.563,2" transform="translate(21 39)"></path><path d="M6.563,2c.08.325-.133.525-.49.525H5.556c-.318,0-.424-.15-.583-.413a1.807,1.807,0,0,0-1.5-.675c-.875,0-1.617.5-1.617,1.088,0,.562.636.8,2.014,1.175C5.185,4.063,7,4.563,7,6.3,7,7.788,5.423,9,3.475,9A3.424,3.424,0,0,1,.017,6.825c-.08-.337.133-.525.49-.525h.5c.318,0,.437.15.584.412a2.178,2.178,0,0,0,1.882.85c1.087,0,2-.575,2-1.263,0-.562-.53-.8-2.041-1.212-1.312-.363-3.1-.85-3.1-2.562C.335,1.125,1.739,0,3.475,0A3.073,3.073,0,0,1,6.563,2" transform="translate(30 39)"></path><path d="M7.568,9H7.057A.547.547,0,0,1,6.5,8.6l-.414-1.08a.546.546,0,0,0-.56-.4H2.478a.546.546,0,0,0-.56.4L1.5,8.6a.545.545,0,0,1-.56.4H.432a.43.43,0,0,1-.378-.157.459.459,0,0,1,0-.434L3.087.4a.545.545,0,0,1,.56-.4h.706a.545.545,0,0,1,.56.4l3.033,8.01a.458.458,0,0,1,0,.434A.431.431,0,0,1,7.568,9ZM4,2.549c-.128,0-.248.116-.329.319l-.815,2.16a.466.466,0,0,0,.011.435.436.436,0,0,0,.379.156h1.51a.436.436,0,0,0,.378-.156.467.467,0,0,0,.012-.436l-.816-2.16C4.248,2.665,4.128,2.549,4,2.549Z" transform="translate(39 39)"></path><path d="M4.136,9A4.331,4.331,0,0,1,0,4.5,4.33,4.33,0,0,1,4.136,0,3.905,3.905,0,0,1,6.618.9l.26.212c.165.151.165.363-.012.625l-.236.337a.408.408,0,0,1-.662.1L5.814,2.05a2.611,2.611,0,0,0-1.678-.612A2.943,2.943,0,0,0,1.324,4.5,2.943,2.943,0,0,0,4.136,7.563,2.609,2.609,0,0,0,5.814,6.95l.271-.224c.165-.138.354-.062.544.2l.236.337a.475.475,0,0,1-.095.7L6.618,8.1A3.9,3.9,0,0,1,4.136,9" transform="translate(49 39)"></path><path d="M6.533,0C6.837,0,7,.18,7,.514V8.486C7,8.82,6.837,9,6.533,9H6.125c-.3,0-.467-.18-.467-.514V5.85c0-.334-.163-.515-.467-.515H1.82c-.3,0-.467.181-.467.515V8.486C1.353,8.82,1.19,9,.887,9H.467C.163,9,0,8.82,0,8.486V.514C0,.18.163,0,.467,0h.42c.3,0,.467.18.467.514V3.343c0,.334.164.514.467.514H5.192c.3,0,.467-.18.467-.514V.514C5.658.18,5.822,0,6.125,0Z" transform="translate(59 39)"></path><path d="M6.507,0A.449.449,0,0,1,7,.507V5.4A3.549,3.549,0,0,1,3.5,9,3.549,3.549,0,0,1,0,5.4V.507A.449.449,0,0,1,.493,0H.912A.449.449,0,0,1,1.4.507V5.4A2.124,2.124,0,0,0,3.5,7.555,2.124,2.124,0,0,0,5.6,5.4V.507A.449.449,0,0,1,6.088,0Z" transform="translate(69 39)"></path><path d="M6.563,2c.08.325-.133.525-.491.525H5.556c-.318,0-.425-.15-.584-.413a1.807,1.807,0,0,0-1.5-.675c-.875,0-1.617.5-1.617,1.088,0,.562.636.8,2.014,1.175C5.184,4.063,7,4.563,7,6.3,7,7.788,5.423,9,3.475,9A3.423,3.423,0,0,1,.017,6.825c-.08-.337.133-.525.49-.525h.5c.319,0,.437.15.584.412a2.179,2.179,0,0,0,1.882.85c1.087,0,2-.575,2-1.263,0-.562-.53-.8-2.041-1.212-1.312-.363-3.1-.85-3.1-2.562C.335,1.125,1.739,0,3.475,0A3.074,3.074,0,0,1,6.563,2" transform="translate(79 39)"></path><path d="M1.86,1.478c-.312,0-.48.18-.48.514v1.35c0,.334.168.514.48.514H4.92c.312,0,.48.18.48.514v.45c0,.334-.168.514-.48.514H1.86c-.312,0-.48.181-.48.515V7.007c0,.334.168.514.48.514H5.52c.312,0,.48.18.48.514v.45C6,8.82,5.832,9,5.52,9H.48C.168,9,0,8.82,0,8.486V.514C0,.18.168,0,.48,0H5.52C5.832,0,6,.18,6,.514v.45c0,.334-.168.514-.48.514Z" transform="translate(88 39)"></path><path d="M6,.964c0,.334-.168.514-.48.514H4.176c-.312,0-.48.18-.48.514V8.486c0,.334-.168.514-.48.514H2.8c-.312,0-.48-.18-.48-.514V1.993c0-.334-.168-.514-.48-.514H.48C.168,1.478,0,1.3,0,.964V.514C0,.18.168,0,.48,0H5.52C5.832,0,6,.18,6,.514Z" transform="translate(97 39)"></path><path d="M6,.964c0,.334-.168.514-.48.514H4.176c-.312,0-.48.18-.48.514V8.486c0,.334-.168.514-.48.514H2.8c-.312,0-.48-.18-.48-.514V1.993c0-.334-.168-.514-.48-.514H.48C.168,1.478,0,1.3,0,.964V.514C0,.18.168,0,.48,0H5.52C5.832,0,6,.18,6,.514Z" transform="translate(105 39)"></path><path d="M6.563,2c.08.325-.133.525-.491.525H5.556c-.318,0-.425-.15-.584-.413a1.807,1.807,0,0,0-1.5-.675c-.875,0-1.617.5-1.617,1.088,0,.562.636.8,2.014,1.175C5.184,4.063,7,4.563,7,6.3,7,7.788,5.423,9,3.475,9A3.423,3.423,0,0,1,.017,6.825c-.08-.337.133-.525.49-.525h.5c.319,0,.437.15.584.412a2.179,2.179,0,0,0,1.882.85c1.087,0,2-.575,2-1.263,0-.562-.53-.8-2.041-1.212-1.312-.363-3.1-.85-3.1-2.562C.335,1.125,1.739,0,3.475,0A3.074,3.074,0,0,1,6.563,2" transform="translate(113 39)"></path></svg> 