<?xml version="1.0" encoding="UTF-8"?> <svg xmlns="http://www.w3.org/2000/svg" xmlns:xlink="http://www.w3.org/1999/xlink" viewBox="0 0 88 70.45"><defs><style>.cls-1{fill:none;}.cls-2{clip-path:url(#clip-path);}.cls-3,.cls-5{fill:#ffcd05;}.cls-4,.cls-6{fill:#6fccdd;}.cls-5,.cls-6{fill-rule:evenodd;}</style><clipPath id="clip-path" transform="translate(0 -7)"><rect class="cls-1" width="88" height="88"></rect></clipPath></defs><g id="Layer_2" data-name="Layer 2"><g id="Layer_1-2" data-name="Layer 1"><g class="cls-2"><path class="cls-3" d="M38.13,27.53a11.73,11.73,0,1,1-3.43-8.29,11.73,11.73,0,0,1,3.43,8.29" transform="translate(0 -7)"></path><path class="cls-4" d="M73.33,18.73a11.73,11.73,0,1,1-3.43-8.29,11.73,11.73,0,0,1,3.43,8.29" transform="translate(0 -7)"></path><path class="cls-5" d="M52.8,74H0V62.73a17.6,17.6,0,0,1,17.6-17.6H35.2a17.46,17.46,0,0,1,4.72.65h0A17.62,17.62,0,0,1,52.8,62.73Z" transform="translate(0 -7)"></path><path class="cls-6" d="M88,65V53.93a17.6,17.6,0,0,0-17.6-17.6H52.8a17.64,17.64,0,0,0-11,3.91A23.46,23.46,0,0,1,58.67,62.73V65Z" transform="translate(0 -7)"></path></g></g></g></svg> 