<?xml version="1.0" encoding="UTF-8"?> <svg xmlns="http://www.w3.org/2000/svg" width="175" height="192" viewBox="0 0 175 192" fill="none"><g clip-path="url(#clip0_215_1150)"><path d="M84.7297 153.014C84.7219 152.555 84.8047 152.098 84.9733 151.67C85.1419 151.243 85.3932 150.853 85.7126 150.522C86.032 150.192 86.4134 149.927 86.835 149.744C87.2566 149.561 87.7101 149.463 88.1697 149.455V149.455C88.6293 149.447 89.086 149.53 89.5137 149.698C89.9414 149.867 90.3317 150.118 90.6623 150.438C90.9929 150.757 91.2573 151.139 91.4404 151.56C91.6236 151.982 91.7219 152.435 91.7297 152.895C91.7428 153.823 91.3884 154.718 90.7439 155.385C90.0993 156.052 89.217 156.436 88.2897 156.455H88.2297C87.3116 156.455 86.4301 156.095 85.7754 155.451C85.1207 154.807 84.7452 153.932 84.7297 153.014ZM65.4197 151.634C65.0021 151.441 64.6267 151.168 64.315 150.83C64.0033 150.491 63.7616 150.095 63.6036 149.663C63.4457 149.231 63.3746 148.772 63.3945 148.312C63.4144 147.853 63.5249 147.402 63.7197 146.985V146.985C63.9118 146.567 64.1849 146.191 64.5232 145.879C64.8614 145.566 65.2581 145.324 65.6905 145.166C66.1228 145.008 66.5821 144.937 67.042 144.958C67.5018 144.978 67.9531 145.089 68.3697 145.285H68.3597C68.7771 145.477 69.1526 145.749 69.4646 146.086C69.7766 146.423 70.0189 146.819 70.1778 147.25C70.3367 147.681 70.4089 148.139 70.3903 148.598C70.3718 149.057 70.2628 149.507 70.0697 149.924C69.7882 150.53 69.3394 151.044 68.776 151.404C68.2126 151.763 67.5582 151.955 66.8897 151.955V151.955C66.3821 151.957 65.8803 151.847 65.4197 151.634V151.634ZM106.28 149.294C106.071 148.885 105.944 148.438 105.909 147.98C105.873 147.521 105.928 147.06 106.071 146.624C106.215 146.187 106.443 145.782 106.743 145.434C107.043 145.086 107.409 144.8 107.82 144.594C108.229 144.385 108.675 144.259 109.132 144.223C109.59 144.187 110.05 144.242 110.487 144.384C110.924 144.526 111.328 144.753 111.677 145.052C112.025 145.35 112.312 145.715 112.52 146.124V146.124C112.728 146.534 112.854 146.982 112.89 147.441C112.925 147.9 112.87 148.361 112.727 148.799C112.584 149.236 112.356 149.641 112.056 149.99C111.756 150.34 111.39 150.626 110.98 150.834V150.834C110.491 151.084 109.949 151.214 109.4 151.214C108.753 151.214 108.119 151.034 107.568 150.695C107.018 150.356 106.572 149.871 106.28 149.294ZM46.9497 137.304C46.3642 136.584 46.0871 135.662 46.1789 134.738C46.2707 133.815 46.7239 132.965 47.4397 132.374C48.1598 131.788 49.0823 131.511 50.0059 131.603C50.9295 131.695 51.7792 132.149 52.3697 132.865V132.865V132.874C52.9562 133.592 53.2339 134.513 53.1421 135.435C53.0502 136.358 52.5962 137.206 51.8797 137.794V137.794C51.2539 138.307 50.469 138.587 49.6597 138.584C49.1416 138.583 48.6301 138.468 48.1616 138.247C47.6932 138.026 47.2794 137.704 46.9497 137.304V137.304ZM124.03 136.535C123.291 135.971 122.807 135.137 122.683 134.216C122.559 133.295 122.806 132.363 123.37 131.624C123.935 130.888 124.769 130.405 125.689 130.281C126.609 130.158 127.54 130.403 128.28 130.964V130.964C129.016 131.527 129.499 132.359 129.623 133.278C129.747 134.196 129.501 135.126 128.94 135.864V135.864C128.614 136.295 128.192 136.644 127.708 136.884C127.223 137.123 126.69 137.247 126.15 137.244V137.244C125.385 137.244 124.641 136.996 124.03 136.535V136.535ZM36.5697 116.365C36.4625 115.918 36.4445 115.454 36.5166 115C36.5888 114.546 36.7497 114.11 36.9903 113.718C37.2308 113.327 37.5462 112.986 37.9184 112.716C38.2907 112.446 38.7124 112.252 39.1597 112.145V112.145C39.6068 112.038 40.0707 112.02 40.5249 112.092C40.979 112.164 41.4144 112.325 41.8063 112.566C42.1982 112.806 42.5389 113.122 42.8089 113.494C43.0788 113.866 43.2728 114.288 43.3797 114.735V114.735L43.3697 114.745C43.5832 115.647 43.4304 116.596 42.9449 117.385C42.4594 118.175 41.6807 118.739 40.7797 118.955V118.955C40.5141 119.017 40.2425 119.051 39.9697 119.055V119.055C39.1831 119.054 38.4199 118.788 37.803 118.3C37.1862 117.812 36.7517 117.13 36.5697 116.365V116.365ZM134.461 117.315C133.551 117.132 132.751 116.595 132.237 115.823C131.723 115.05 131.537 114.105 131.72 113.195C131.903 112.286 132.44 111.486 133.212 110.972C133.985 110.458 134.93 110.272 135.84 110.455V110.455C136.291 110.545 136.719 110.722 137.102 110.978C137.484 111.234 137.811 111.563 138.066 111.946C138.321 112.328 138.497 112.758 138.585 113.209C138.673 113.66 138.671 114.125 138.58 114.575C138.422 115.366 137.995 116.078 137.371 116.591C136.748 117.103 135.966 117.383 135.16 117.384V117.384C134.925 117.385 134.691 117.362 134.461 117.315V117.315ZM39.0297 97.1651C38.1233 96.965 37.3332 96.4137 36.8327 95.632C36.3322 94.8503 36.1621 93.902 36.3597 92.9951C36.5597 92.0887 37.1111 91.2986 37.8928 90.7981C38.6745 90.2976 39.6227 90.1275 40.5297 90.3251C40.9789 90.4234 41.4043 90.6093 41.7816 90.8721C42.159 91.135 42.4808 91.4695 42.7288 91.8568C42.9767 92.2441 43.1459 92.6764 43.2267 93.1291C43.3075 93.5818 43.2983 94.0459 43.1997 94.4951V94.4951C43.0266 95.2737 42.5937 95.9702 41.9721 96.47C41.3505 96.9698 40.5773 97.2432 39.7797 97.2451V97.2451C39.5277 97.2427 39.2765 97.2159 39.0297 97.1651V97.1651ZM46.9607 76.7851C46.5991 76.5004 46.2973 76.1473 46.0724 75.7458C45.8474 75.3444 45.7039 74.9025 45.6499 74.4456C45.596 73.9886 45.6326 73.5254 45.7579 73.0826C45.8831 72.6399 46.0944 72.2261 46.3797 71.8651V71.8651C46.6651 71.5043 47.0188 71.2033 47.4205 70.9793C47.8223 70.7553 48.2644 70.6127 48.7213 70.5597C49.1783 70.5066 49.6412 70.5442 50.0836 70.6702C50.526 70.7962 50.9393 71.0082 51.2997 71.2941V71.2941C52.0264 71.8718 52.4944 72.7141 52.6013 73.6363C52.7081 74.5585 52.445 75.4855 51.8697 76.2141V76.2141V76.2051C51.543 76.6218 51.1254 76.9582 50.6488 77.1888C50.1722 77.4193 49.6491 77.5377 49.1197 77.5351V77.5351C48.3351 77.5372 47.5734 77.2711 46.9607 76.7811V76.7851ZM62.9697 61.8951C62.5655 61.0592 62.5091 60.0973 62.8127 59.2199C63.1164 58.3426 63.7553 57.6213 64.5897 57.2141V57.2141C65.4257 56.8124 66.3866 56.7573 67.2632 57.0607C68.1397 57.3641 68.8609 58.0015 69.2697 58.8341V58.8341C69.4709 59.2477 69.5885 59.6969 69.616 60.156C69.6435 60.6152 69.5801 61.0752 69.4297 61.5098C69.2792 61.9445 69.0446 62.3452 68.7392 62.6891C68.4337 63.033 68.0635 63.3133 67.6497 63.5141V63.5141C67.1733 63.7468 66.6498 63.8669 66.1197 63.8651V63.8651C65.4625 63.8662 64.8183 63.6819 64.2611 63.3335C63.7039 62.985 63.2563 62.4864 62.9697 61.8951V61.8951Z" fill="#FFCC00"></path><path d="M135.345 95.2445C134.548 95.2426 133.774 94.9693 133.153 94.4695C132.531 93.9697 132.098 93.2731 131.925 92.4945C131.827 92.0454 131.817 91.5812 131.898 91.1285C131.979 90.6759 132.148 90.2435 132.396 89.8563C132.644 89.469 132.966 89.1344 133.343 88.8716C133.721 88.6088 134.146 88.4229 134.595 88.3245V88.3245C135.502 88.1269 136.45 88.297 137.232 88.7975C138.014 89.298 138.565 90.0881 138.765 90.9945V90.9945C138.963 91.9015 138.793 92.8498 138.292 93.6315C137.792 94.4132 137.002 94.9645 136.095 95.1645C135.848 95.2154 135.597 95.2422 135.345 95.2445V95.2445Z" fill="#FFCC00"></path><path d="M154.778 37.438C154.975 37.2041 155.123 36.9339 155.215 36.6427C155.307 36.3514 155.341 36.045 155.314 35.7408C155.287 35.4365 155.201 35.1405 155.06 34.8697C154.919 34.5988 154.726 34.3583 154.492 34.162L144.728 25.969C144.256 25.5726 143.645 25.3801 143.031 25.4337C142.416 25.4874 141.848 25.7827 141.451 26.255L134.351 34.722C127.561 30.1221 120.13 26.5471 112.298 24.112V10.19C112.298 8.4157 111.594 6.71407 110.339 5.45945C109.084 4.20484 107.383 3.5 105.608 3.5H69.1585C67.3842 3.5 65.6825 4.20484 64.4279 5.45945C63.1733 6.71407 62.4684 8.4157 62.4684 10.19V24.112C54.6368 26.5471 47.2065 30.1221 40.4165 34.722L33.3114 26.255C33.1151 26.0211 32.8747 25.8281 32.6038 25.6872C32.3329 25.5462 32.0369 25.46 31.7327 25.4334C31.4285 25.4068 31.122 25.4405 30.8308 25.5324C30.5396 25.6243 30.2693 25.7726 30.0354 25.969L20.2714 34.162C19.7991 34.5585 19.5035 35.1263 19.4497 35.7406C19.3959 36.3549 19.5883 36.9655 19.9845 37.438L27.0975 45.915C15.6448 57.7535 7.9312 72.7019 4.91872 88.8957C1.90623 105.089 3.72824 121.812 10.1575 136.977C16.5867 152.142 27.3386 165.078 41.072 174.173C54.8054 183.267 70.9124 188.116 87.3839 188.116C103.856 188.116 119.963 183.267 133.696 174.173C147.429 165.078 158.181 152.142 164.61 136.977C171.04 121.812 172.862 105.089 169.849 88.8957C166.837 72.7019 159.123 57.7535 147.67 45.915L154.778 37.438ZM87.3784 170.846C74.2026 170.846 61.3228 166.939 50.3676 159.618C39.4125 152.298 30.874 141.894 25.8321 129.721C20.7901 117.548 19.471 104.153 22.0417 91.2305C24.6124 78.3079 30.9573 66.4378 40.2741 57.1213C49.591 47.8047 61.4612 41.4601 74.3839 38.8899C87.3066 36.3196 100.701 37.639 112.874 42.6814C125.047 47.7237 135.451 56.2625 142.771 67.2178C150.091 78.1732 153.998 91.0532 153.997 104.229C153.998 112.977 152.275 121.64 148.927 129.723C145.579 137.805 140.672 145.149 134.486 151.335C128.3 157.521 120.956 162.428 112.873 165.776C104.791 169.123 96.1278 170.846 87.3794 170.846H87.3784Z" stroke="white" stroke-width="7" stroke-miterlimit="10"></path><path d="M127.701 73.1806L84.376 107.23V52.1836H91.131V91.0556L123.545 67.8556L127.701 73.1806Z" fill="white"></path></g><defs><clipPath id="clip0_215_1150"><rect width="174.759" height="191.608" fill="white"></rect></clipPath></defs></svg> 