<?xml version="1.0" encoding="UTF-8"?> <svg xmlns="http://www.w3.org/2000/svg" viewBox="0 0 197.765 198.223"><defs><style>.cls-1{fill:#fc0;}.cls-2{fill:#fff;}</style></defs><g id="Layer_2" data-name="Layer 2"><g id="Layer_1-2" data-name="Layer 1"><path class="cls-1" d="M32.8,167.278a3.4,3.4,0,0,1-2.071,1.561,3.117,3.117,0,0,1-.65.1,2.867,2.867,0,0,1-.656-.026,2.95,2.95,0,0,1-.647-.157,3.057,3.057,0,0,1-.6-.274,3.227,3.227,0,0,1-.542-.4,3,3,0,0,1-.442-.483,2.886,2.886,0,0,1-.343-.56,3.17,3.17,0,0,1-.239-.622,3.292,3.292,0,0,1-.095-.66,2.629,2.629,0,0,1,.027-.656,3.027,3.027,0,0,1,.151-.638,3.43,3.43,0,0,1,.67-1.141,3.26,3.26,0,0,1,.489-.452,2.878,2.878,0,0,1,.559-.343,3.8,3.8,0,0,1,.618-.23,3.658,3.658,0,0,1,.664-.1,4.231,4.231,0,0,1,.656.027,3.426,3.426,0,0,1,.638.151,3.061,3.061,0,0,1,.61.278,2.938,2.938,0,0,1,.531.392,3.3,3.3,0,0,1,.451.489,4.036,4.036,0,0,1,.344.559,3.616,3.616,0,0,1,.225.625,3.144,3.144,0,0,1,.109.656,4.1,4.1,0,0,1-.028.655,3.186,3.186,0,0,1-.156.647,2.946,2.946,0,0,1-.273.6"></path><path class="cls-1" d="M23.38,45.84h0a3.424,3.424,0,1,1,.148-.236c-.049.083-.093.159-.148.236M8.8,66.338a3.38,3.38,0,1,1,4.4-1.857,4.414,4.414,0,0,1-.215.443A3.389,3.389,0,0,1,8.8,66.338M37.5,30a3.345,3.345,0,1,1,.677-.809A3.273,3.273,0,0,1,37.5,30M3.7,87.752a3.38,3.38,0,1,1,3.85-2.821,3.291,3.291,0,0,1-.419,1.187A3.391,3.391,0,0,1,3.7,87.752M54.893,17.838a3.4,3.4,0,1,1,1.3-1.263,3.387,3.387,0,0,1-1.3,1.263M3.64,109.754a3.376,3.376,0,1,1,3.1-3.628,3.338,3.338,0,0,1-.452,1.973,3.373,3.373,0,0,1-2.651,1.655M74.6,9.954A3.38,3.38,0,1,1,76.626,8.4,3.368,3.368,0,0,1,74.6,9.954M8.58,131.21a3.376,3.376,0,1,1,1.9-1.514,3.38,3.38,0,0,1-1.9,1.514m87-124.46a3.372,3.372,0,1,1,2.789-1.662A3.376,3.376,0,0,1,95.584,6.75M18.278,150.973a3.383,3.383,0,1,1,1.183-1.2,3.386,3.386,0,0,1-1.183,1.2"></path><polygon class="cls-1" points="54.325 184.429 29.617 188.898 28.414 182.25 46.474 178.982 43.207 160.925 49.855 159.722 54.325 184.429"></polygon><path class="cls-1" d="M170.574,34.123a3.39,3.39,0,0,1-2.055,1.557,3.437,3.437,0,0,1-2.568-.354,3.739,3.739,0,0,1-.532-.391,4.867,4.867,0,0,1-.451-.49,4.008,4.008,0,0,1-.343-.559,3.4,3.4,0,0,1,2.193-4.744,2.931,2.931,0,0,1,.651-.1,3.457,3.457,0,0,1,.66.019,4.916,4.916,0,0,1,.647.156,3.714,3.714,0,0,1,.595.283,3.781,3.781,0,0,1,.544.386,4.634,4.634,0,0,1,.445.485,3.466,3.466,0,0,1,.338.567,3.1,3.1,0,0,1,.239.622,3.4,3.4,0,0,1-.363,2.563"></path><path class="cls-1" d="M182.814,52.791a3.379,3.379,0,0,1-4.639-1.168l.012,0a3.374,3.374,0,1,1,4.627,1.172m-80.34,145.43a3.383,3.383,0,1,1,3.247-3.511,3.326,3.326,0,0,1-.461,1.833,3.388,3.388,0,0,1-2.786,1.678m88.69-125.028a3.376,3.376,0,1,1,2.187-4.242,3.383,3.383,0,0,1-2.187,4.242M125.009,194.762l.007,0a3.381,3.381,0,0,1-1.789-6.522l.009,0a3.375,3.375,0,1,1,1.773,6.513m69.642-99.811a3.375,3.375,0,1,1,3.1-3.628A3.416,3.416,0,0,1,197.3,93.3a3.353,3.353,0,0,1-2.651,1.655m-48.472,91.335a3.377,3.377,0,0,1-3.216-5.94l0-.009a3.38,3.38,0,0,1,3.211,5.949m46.9-69.347a3.378,3.378,0,1,1,3.431-1.632,3.372,3.372,0,0,1-3.431,1.632m-28.23,56.246.006-.01a3.373,3.373,0,1,1,.662-.807,3.579,3.579,0,0,1-.668.817m21.657-35.211a3.377,3.377,0,1,1,4.395-1.865,4.209,4.209,0,0,1-.229.448,3.373,3.373,0,0,1-4.166,1.417m-6.488,18.16-.005.007a3.381,3.381,0,1,1,.151-.235,2.425,2.425,0,0,1-.146.228"></path><polygon class="cls-1" points="147.928 38.492 154.576 37.289 151.309 19.231 169.366 15.964 168.163 9.316 143.457 13.786 147.928 38.492"></polygon><path class="cls-2" d="M101.352,103.518q-2.52-1.176-5.163-2.4a60.065,60.065,0,0,1-5.465-2.886,25.432,25.432,0,0,1-5.185-4.072,19.88,19.88,0,0,1-3.883-5.742,19.268,19.268,0,0,1-1.537-7.957,19.824,19.824,0,0,1,1.746-8.424,17.845,17.845,0,0,1,4.9-6.355A21.165,21.165,0,0,1,93.956,61.9a28.868,28.868,0,0,1,8.564-1.24,28.078,28.078,0,0,1,4.756.412,32.077,32.077,0,0,1,4.427,1.081,25.679,25.679,0,0,1,3.822,1.567,11.108,11.108,0,0,1,2.765,1.835L113.345,70.5a1.018,1.018,0,0,0,.087.08,8.016,8.016,0,0,0-1.12-.65,18.689,18.689,0,0,0-2.771-1.128,24.98,24.98,0,0,0-3.455-.841,21.82,21.82,0,0,0-10.055.615A14.233,14.233,0,0,0,91.2,71.1a10.752,10.752,0,0,0-2.986,3.887,12.942,12.942,0,0,0-1.094,5.476,12.417,12.417,0,0,0,.916,5.076,12.931,12.931,0,0,0,2.512,3.732,18.445,18.445,0,0,0,3.761,2.95,53.119,53.119,0,0,0,4.826,2.549q2.652,1.228,5.179,2.408Z"></path><path class="cls-2" d="M95.573,136.466a28.053,28.053,0,0,1-4.754-.411,32.014,32.014,0,0,1-4.43-1.082,25.542,25.542,0,0,1-3.821-1.566A10.913,10.913,0,0,1,79.8,131.57l4.949-4.949a.664.664,0,0,0-.089-.082,8.19,8.19,0,0,0,1.121.649,18.719,18.719,0,0,0,2.77,1.128,24.944,24.944,0,0,0,3.455.841,21.865,21.865,0,0,0,10.057-.616,14.222,14.222,0,0,0,4.832-2.514,10.781,10.781,0,0,0,2.986-3.889,12.934,12.934,0,0,0,1.093-5.475,12.422,12.422,0,0,0-.917-5.078,12.928,12.928,0,0,0-2.513-3.732,18.431,18.431,0,0,0-3.76-2.949,52.8,52.8,0,0,0-4.826-2.547q-2.648-1.228-5.178-2.409L96.741,93.6q2.52,1.177,5.162,2.4a59.909,59.909,0,0,1,5.466,2.886,25.519,25.519,0,0,1,5.185,4.072,19.916,19.916,0,0,1,3.884,5.743,19.277,19.277,0,0,1,1.536,7.956,19.848,19.848,0,0,1-1.745,8.424,17.865,17.865,0,0,1-4.9,6.355,21.177,21.177,0,0,1-7.194,3.785A28.874,28.874,0,0,1,95.573,136.466Z"></path><rect class="cls-2" x="96.298" y="46.594" width="7" height="17.562"></rect><rect class="cls-2" x="96.298" y="133.781" width="7" height="17.562"></rect></g></g></svg> 