<?xml version="1.0" encoding="UTF-8"?> <svg xmlns="http://www.w3.org/2000/svg" width="194" height="194" viewBox="0 0 194 194" fill="none"><path d="M86.607 93.5368C77.6998 93.5367 68.9927 90.9968 61.5868 86.2384C54.1808 81.48 48.4086 74.7169 45.0001 66.8042C41.5916 58.8915 40.6999 50.1846 42.4378 41.7846C44.1756 33.3846 48.4649 25.6687 54.7633 19.6127C61.0617 13.5567 69.0863 9.43251 77.8223 7.7617C86.5584 6.0909 95.6135 6.94851 103.843 10.2261C112.072 13.5037 119.105 19.054 124.054 26.1752C129.002 33.2964 131.644 41.6687 131.644 50.2333C131.63 61.7142 126.881 72.7212 118.438 80.8393C109.994 88.9575 98.5472 93.5239 86.607 93.5368V93.5368ZM86.607 13.4965C79.0506 13.4967 71.6639 15.6515 65.3811 19.6883C59.0982 23.7251 54.2014 29.4626 51.3098 36.1754C48.4182 42.8882 47.6617 50.2747 49.136 57.4008C50.6103 64.527 54.2492 71.0728 59.5925 76.2104C64.9357 81.348 71.7434 84.8468 79.1547 86.2642C86.5659 87.6816 94.2479 86.954 101.229 84.1735C108.21 81.393 114.177 76.6843 118.375 70.643C122.573 64.6017 124.814 57.4991 124.814 50.2333C124.803 40.4934 120.773 31.1556 113.611 24.2685C106.448 17.3814 96.7365 13.5075 86.607 13.4965V13.4965Z" fill="white"></path><path d="M116.415 187.071H17.3223L17.4104 146.548C17.4266 133.411 22.5688 120.817 31.7089 111.528C40.8491 102.24 53.2409 97.0149 66.1662 97H69.3842L87.2327 114.605L105.083 97H108.3C118.138 97 129.69 101.872 135.055 105.149C140.465 108.45 145.002 115.857 145.501 116.691L139.583 120.353C138.466 118.498 134.831 113.227 131.488 111.186C126.964 108.424 116.669 104.043 108.3 104.043H107.891L87.2327 124.424L66.575 104.043H66.1662C55.0764 104.056 44.4445 108.539 36.6029 116.509C28.7613 124.479 24.3505 135.285 24.3382 146.557L24.2649 180.03H116.418L116.415 187.071Z" fill="white"></path><path d="M168.762 136.188C165.909 133.279 162.041 131.646 158.007 131.646C153.974 131.646 150.106 133.279 147.253 136.188L143.769 139.741L140.284 136.188C137.433 133.279 133.564 131.645 129.531 131.645C125.497 131.644 121.629 133.278 118.777 136.187C115.925 139.095 114.322 143.04 114.322 147.154C114.322 151.267 115.924 155.212 118.776 158.121L122.261 161.674L143.769 183.609L165.276 161.674L168.762 158.121C171.613 155.212 173.215 151.267 173.215 147.154C173.215 143.041 171.613 139.096 168.762 136.188Z" stroke="#FFCC00" stroke-width="6.92857" stroke-miterlimit="10"></path></svg> 