<?xml version="1.0" encoding="UTF-8"?> <svg xmlns="http://www.w3.org/2000/svg" width="36" height="40" viewBox="0 0 36 40" fill="none"><g clip-path="url(#clip0_1709_4866)"><path d="M8.34793 5.54395H4.78217V6.99428H8.34793V5.54395Z" fill="#0000CC"></path><path d="M24.5783 35.6727C23.3284 35.673 22.1064 35.3025 21.067 34.6083C20.0276 33.914 19.2175 32.9271 18.7391 31.7723C18.2606 30.6176 18.1353 29.3469 18.3791 28.1209C18.6229 26.895 19.2247 25.7689 20.1086 24.885C20.9924 24.0012 22.1185 23.3993 23.3444 23.1554C24.5703 22.9116 25.841 23.0369 26.9958 23.5153C28.1506 23.9937 29.1375 24.8038 29.8318 25.8432C30.5262 26.8826 30.8966 28.1045 30.8964 29.3544C30.8945 31.0295 30.2282 32.6355 29.0438 33.82C27.8593 35.0044 26.2534 35.6708 24.5783 35.6727V35.6727ZM24.5783 24.4856C23.6153 24.4854 22.6738 24.7708 21.8729 25.3056C21.0721 25.8405 20.4478 26.6008 20.0791 27.4905C19.7104 28.3802 19.6137 29.3592 19.8015 30.3038C19.9892 31.2484 20.4529 32.116 21.1337 32.7971C21.8146 33.4782 22.6822 33.942 23.6267 34.13C24.5712 34.318 25.5503 34.2216 26.4401 33.8531C27.3299 33.4846 28.0903 32.8606 28.6254 32.0598C29.1605 31.2591 29.4461 30.3177 29.4461 29.3546C29.4448 28.0639 28.9315 26.8264 28.019 25.9136C27.1064 25.0008 25.869 24.4873 24.5783 24.4856V24.4856Z" fill="#0000CC"></path><path d="M16.0575 32.1899H0.725354C0.533026 32.1899 0.348581 32.1135 0.212585 31.9775C0.076589 31.8415 0.000183105 31.6571 0.000183105 31.4647V0.725171C0.000183105 0.532843 0.076589 0.348393 0.212585 0.212397C0.348581 0.0764011 0.533026 9.06596e-10 0.725354 9.06596e-10H28.9046C29.0005 -4.79142e-06 29.0954 0.0189898 29.1838 0.0558857C29.2723 0.0927816 29.3526 0.146846 29.42 0.214955C29.4874 0.283063 29.5407 0.363863 29.5767 0.452683C29.6127 0.541504 29.6308 0.636582 29.6298 0.732421L29.4226 21.4684C29.4207 21.6594 29.3435 21.842 29.2077 21.9765C29.0719 22.1109 28.8885 22.1863 28.6975 22.1863H28.69C28.5948 22.1853 28.5006 22.1656 28.413 22.1283C28.3254 22.091 28.246 22.0368 28.1793 21.9688C28.1127 21.9008 28.0601 21.8203 28.0245 21.7319C27.9889 21.6436 27.9711 21.5491 27.9721 21.4539L28.172 1.45034H1.45032V30.7396H16.0573C16.2496 30.7396 16.4341 30.816 16.5701 30.952C16.7061 31.088 16.7825 31.2724 16.7825 31.4647C16.7825 31.6571 16.7061 31.8415 16.5701 31.9775C16.4341 32.1135 16.2496 32.1899 16.0573 32.1899H16.0575Z" fill="#000066"></path><path d="M29.4073 32.9314L28.4005 33.9751L34.6452 39.9992L35.652 38.9556L29.4073 32.9314Z" fill="#0000CC"></path><path d="M24.5781 5.54395H4.78217V6.99428H24.5781V5.54395Z" fill="#0000CC"></path><path d="M24.5781 11.3745H4.78223V12.8249H24.5781V11.3745Z" fill="#0000CC"></path><path d="M24.5781 17.205H4.78217V18.6553H24.5781V17.205Z" fill="#0000CC"></path><path d="M15.0473 23.0354H4.78217V24.4857H15.0473V23.0354Z" fill="#0000CC"></path><g clip-path="url(#clip1_1709_4866)"><path d="M38.504 79.5721H0.811005L-4.305 63.5991C-15.39 55.8481 -26.844 42.1841 -26.844 26.1801C-26.844 14.0281 -22.0166 2.37389 -13.4239 -6.21884C-4.83119 -14.8116 6.82305 -19.6389 18.975 -19.6389C31.127 -19.6389 42.7812 -14.8116 51.3739 -6.21884C59.9667 2.37389 64.794 14.0281 64.794 26.1801C64.794 39.0721 56.901 52.6081 43.623 62.5871L38.504 79.5721ZM5.91901 72.5721H33.303L37.596 58.3211L38.553 57.6281C50.601 48.8991 57.794 37.1441 57.794 26.1801C57.794 21.0823 56.7899 16.0344 54.8391 11.3247C52.8882 6.61496 50.0289 2.33558 46.4242 -1.2691C42.8195 -4.87377 38.5401 -7.73316 33.8304 -9.684C29.1206 -11.6348 24.0728 -12.6389 18.975 -12.6389C13.8772 -12.6389 8.82935 -11.6348 4.11961 -9.684C-0.590125 -7.73316 -4.8695 -4.87377 -8.47417 -1.2691C-12.0789 2.33558 -14.9382 6.61496 -16.8891 11.3247C-18.8399 16.0344 -19.844 21.0823 -19.844 26.1801C-19.844 39.9181 -9.28 51.8711 0.606003 58.4801L1.623 59.1581L5.91901 72.5721Z" fill="#000066"></path></g></g><defs><clipPath id="clip0_1709_4866"><rect width="35.6527" height="40" fill="white"></rect></clipPath><clipPath id="clip1_1709_4866"><rect width="200.76" height="190.817" fill="white" transform="translate(-83 -75)"></rect></clipPath></defs></svg> 